Coordinates
version=1
nRows=12
nColumns=24
inDegrees=yes

Units are S.I. units (second, meters, Newtons, ...)
Angles are in degrees.

endheader
time	pelvis_tilt	pelvis_list	pelvis_rotation	pelvis_tx	pelvis_ty	pelvis_tz	hip_flexion_r	hip_adduction_r	hip_rotation_r	knee_angle_r	ankle_angle_r	subtalar_angle_r	mtp_angle_r	hip_flexion_l	hip_adduction_l	hip_rotation_l	knee_angle_l	ankle_angle_l	subtalar_angle_l	mtp_angle_l	lumbar_extension	lumbar_bending	lumbar_rotation
      5.00000000	      2.47527669	      1.43362941	      1.81110781	      1.18155076	      0.96198991	     -0.18463429	     23.50794831	     -4.17944759	     -4.19459338	    -41.74162124	      5.50519689	     -7.93559146	      0.00000000	     -1.47959265	      8.26582824	      9.23044235	    -12.17768933	     14.22968740	    -10.23931078	      0.00000000	    -23.44261541	     -0.87702481	     -6.56608466
      5.01000000	      2.38146613	      1.79027156	      2.72773527	      1.19297177	      0.96139051	     -0.18542632	     23.71052194	     -4.64635212	     -5.06852964	    -38.34603669	      5.80239397	     -6.16540076	      0.00000000	     -2.69819362	      8.48310273	     10.26427469	    -11.21832284	     14.34124810	    -10.18974821	      0.00000000	    -23.38016948	     -1.08557352	     -7.63798494
      5.02000000	      2.36894885	      2.15256646	      3.66539129	      1.20449488	      0.96072524	     -0.18622086	     23.70096799	     -5.07130385	     -5.79192524	    -34.82298036	      5.93737477	     -4.21344747	      0.00000000	     -4.02451142	      8.66053278	     11.39630840	    -10.25359784	     14.36120908	    -10.27088518	      0.00000000	    -23.42626084	     -1.27333324	     -8.75120118
      5.03000000	      2.29007968	      2.62447935	      4.55581044	      1.21613025	      0.95965612	     -0.18688711	     23.71980650	     -5.58436346	     -6.42485599	    -31.32659104	      6.10104262	     -2.10637675	      0.00000000	     -5.27378656	      8.91309248	     12.25448039	     -9.33096084	     14.50823378	    -10.11864549	      0.00000000	    -23.38752749	     -1.63253563	     -9.86124249
      5.04000000	      2.24396081	      3.11229449	      5.45259454	      1.22783783	      0.95846760	     -0.18753603	     23.60237537	     -6.08667038	     -6.93079968	    -27.78136286	      6.17174995	      0.01340408	      0.00000000	     -6.54790849	      9.14497708	     13.04577222	     -8.45855297	     14.62744289	     -9.96234442	      0.00000000	    -23.41268265	     -2.00298836	    -10.94969490
      5.05000000	      2.20008193	      3.64122057	      6.30058408	      1.23967028	      0.95707168	     -0.18816989	     23.42465183	     -6.61620823	     -7.35831214	    -24.27802143	      6.20925638	      2.06863623	      0.00000000	     -7.81677105	      9.39945656	     13.62240215	     -7.63567869	     14.79408901	     -9.69924100	      0.00000000	    -23.43536727	     -2.42795316	    -11.99945826
      5.06000000	      2.11352032	      4.24412531	      7.05123922	      1.25155216	      0.95540216	     -0.18862441	     23.28582128	     -7.19256550	     -7.67772339	    -20.91013888	      6.24635538	      3.99929111	      0.00000000	     -9.02654587	      9.72044750	     13.97275414	     -6.87065239	     15.01801097	     -9.26934949	      0.00000000	    -23.43560200	     -2.99169047	    -12.99039758
      5.07000000	      2.12404730	      4.80463455	      7.85480496	      1.26351984	      0.95380257	     -0.18917843	     22.94403257	     -7.73320884	     -8.06366968	    -17.57994101	      6.18742862	      5.60889597	      0.00000000	    -10.30210600	      9.96505671	     14.26655699	     -6.21392044	     15.25644121	     -8.81560819	      0.00000000	    -23.56848541	     -3.45011481	    -14.03228263
      5.08000000	      2.14943112	      5.37349800	      8.60095762	      1.27554370	      0.95209830	     -0.18962217	     22.56239994	     -8.25461847	     -8.41625286	    -14.41965434	      6.11195514	      6.90300583	      0.00000000	    -11.54402213	     10.21080303	     14.40907024	     -5.68059548	     15.54232478	     -8.28584287	      0.00000000	    -23.74187155	     -3.93757285	    -15.00647676
      5.09000000	      2.17358422	      5.92635507	      9.30768412	      1.28765528	      0.95031201	     -0.18995410	     22.17140946	     -8.73648175	     -8.83557742	    -11.49007732	      6.01808842	      7.84953145	      0.00000000	    -12.72746210	     10.43070462	     14.47341261	     -5.28470792	     15.87323052	     -7.68452264	      0.00000000	    -23.92453807	     -4.42209018	    -15.95272138
      5.10000000	      2.20482384	      6.43582591	      9.98370214	      1.29985046	      0.94848851	     -0.19022234	     21.77481780	     -9.15343572	     -9.32051395	     -8.85403246	      5.93106800	      8.49719443	      0.00000000	    -13.83852860	     10.60319183	     14.49678978	     -5.05880339	     16.24822951	     -7.07274587	      0.00000000	    -24.12216061	     -4.85914710	    -16.85605201
      5.11000000	      2.24898429	      6.88534790	     10.63081556	      1.31213603	      0.94667936	     -0.19042590	     21.39137210	     -9.48732779	     -9.90553177	     -6.58617981	      5.86376188	      8.88332479	      0.00000000	    -14.87136700	     10.70948804	     14.51932945	     -5.01323182	     16.65248907	     -6.46896892	      0.00000000	    -24.33406943	     -5.22939186	    -17.71871123
